<?xml version="1.0" encoding="utf-8"?>
<!-- Generator: Adobe Illustrator 20.1.0, SVG Export Plug-In . SVG Version: 6.00 Build 0)  -->
<svg version="1.1" id="Layer_1" xmlns="http://www.w3.org/2000/svg" xmlns:xlink="http://www.w3.org/1999/xlink" x="0px" y="0px"
	 viewBox="0 0 448.7 100.1" style="enable-background:new 0 0 448.7 100.1;" xml:space="preserve">
<style type="text/css">
	.st0{enable-background:new;}
	.st1{fill:#FFFFFF;}
</style>
<g id="Logo">
	<g class="st0">
		<path class="st1" d="M51.7,19.4c4.5,3.8,6.7,9.6,6.7,17.5c0,7.9-2.3,13.6-6.9,17.3c-4.6,3.6-11.6,5.5-21,5.5H22v17.8H7.8V13.7
			h22.5C40.1,13.7,47.2,15.6,51.7,19.4z M41.3,44.4c1.7-1.9,2.6-4.7,2.6-8.4c0-3.7-1.1-6.3-3.3-7.8c-2.2-1.5-5.7-2.3-10.3-2.3H22
			v21.4h9.6C36.3,47.3,39.6,46.4,41.3,44.4z"/>
	</g>
	<g class="st0">
		<path class="st1" d="M89.5,40.4c-4.1,0-7.1,1.4-9.1,4.3c-2,2.9-3,6.7-3,11.4v21.2H63.7v-49h13.7v6.5c1.8-2,4-3.7,6.6-5.1
			c2.6-1.4,5.3-2.1,8.1-2.2l0.1,12.8H89.5z"/>
	</g>
	<g class="st0">
		<path class="st1" d="M138.2,77.4h-12.8v-5.9c-3.5,4.4-7.9,6.6-13.1,6.6c-5.2,0-9.5-1.5-13.1-4.5c-3.5-3-5.3-7-5.3-12
			c0-5,1.8-8.8,5.5-11.2c3.6-2.5,8.6-3.7,14.9-3.7h10.2v-0.3c0-5.2-2.8-7.8-8.3-7.8c-2.4,0-4.9,0.5-7.5,1.4
			c-2.6,0.9-4.9,2.1-6.7,3.5L96,34.6c6.4-4.7,13.8-7,22-7c6,0,10.8,1.5,14.6,4.5c3.8,3,5.6,7.7,5.6,14.1V77.4z M124.5,58.7v-2.4
			h-8.6c-5.5,0-8.2,1.7-8.2,5.1c0,1.8,0.7,3.1,2,4.1c1.3,0.9,3.2,1.4,5.6,1.4c2.4,0,4.6-0.7,6.4-2.2
			C123.5,63.2,124.5,61.2,124.5,58.7z"/>
	</g>
	<g class="st0">
		<path class="st1" d="M153.7,96.7c-4.8,0-9.3-1.9-13.6-5.8l6.2-10.1c2.3,2.2,4.7,3.4,7.1,3.4c1.3,0,2.4-0.6,3.3-1.9
			c0.9-1.2,1.4-2.6,1.4-4c0-1.4-6.3-18-18.9-49.9h14.6l11.9,30.5l11.9-30.5h14.6l-22.8,57.7c-1.3,3.3-3.4,5.9-6.2,7.8
			C160.4,95.8,157.2,96.7,153.7,96.7z"/>
	</g>
	<g class="st0">
		<path class="st1" d="M235.7,70.3c-5.5,5.2-12,7.8-19.4,7.8c-7.4,0-13.6-2.3-18.4-6.9c-4.9-4.6-7.3-10.7-7.3-18.4
			c0-7.7,2.5-13.8,7.4-18.4c4.9-4.6,10.8-6.8,17.5-6.8c6.7,0,12.5,2,17.2,6.1c4.7,4.1,7.1,9.7,7.1,16.8v7.3H204
			c0.4,2.7,1.8,4.9,4.2,6.6c2.4,1.7,5,2.5,8,2.5c4.8,0,8.7-1.6,11.8-4.8L235.7,70.3z M222.6,41.2c-1.9-1.6-4.2-2.4-6.9-2.4
			c-2.7,0-5.2,0.8-7.4,2.5c-2.2,1.6-3.6,3.9-3.9,6.6h21.5C225.5,45,224.5,42.8,222.6,41.2z"/>
	</g>
	<g class="st0">
		<path class="st1" d="M271.8,40.4c-4.1,0-7.1,1.4-9.1,4.3c-2,2.9-3,6.7-3,11.4v21.2h-13.7v-49h13.7v6.5c1.8-2,4-3.7,6.6-5.1
			c2.6-1.4,5.3-2.1,8.1-2.2l0.1,12.8H271.8z"/>
	</g>
	<g class="st0">
		<path class="st1" d="M299.5,26v51.4h-14.2V26h-18V13.7h50.3V26H299.5z"/>
	</g>
	<g class="st0">
		<path class="st1" d="M341.2,40.4c-4.1,0-7.1,1.4-9.1,4.3c-2,2.9-3,6.7-3,11.4v21.2h-13.7v-49h13.7v6.5c1.8-2,4-3.7,6.6-5.1
			c2.6-1.4,5.3-2.1,8.1-2.2l0.1,12.8H341.2z"/>
	</g>
	<g class="st0">
		<path class="st1" d="M390.9,70.3c-5.5,5.2-12,7.8-19.4,7.8c-7.4,0-13.6-2.3-18.4-6.9c-4.9-4.6-7.3-10.7-7.3-18.4
			c0-7.7,2.5-13.8,7.4-18.4c4.9-4.6,10.8-6.8,17.5-6.8s12.5,2,17.2,6.1c4.7,4.1,7.1,9.7,7.1,16.8v7.3h-35.7c0.4,2.7,1.8,4.9,4.2,6.6
			c2.4,1.7,5,2.5,8,2.5c4.8,0,8.7-1.6,11.8-4.8L390.9,70.3z M377.8,41.2c-1.9-1.6-4.2-2.4-6.9-2.4c-2.7,0-5.2,0.8-7.4,2.5
			c-2.2,1.6-3.6,3.9-3.9,6.6h21.5C380.8,45,379.7,42.8,377.8,41.2z"/>
	</g>
	<g class="st0">
		<path class="st1" d="M443.6,70.3c-5.5,5.2-12,7.8-19.4,7.8c-7.4,0-13.6-2.3-18.4-6.9c-4.9-4.6-7.3-10.7-7.3-18.4
			c0-7.7,2.5-13.8,7.4-18.4c4.9-4.6,10.8-6.8,17.5-6.8c6.7,0,12.5,2,17.2,6.1c4.7,4.1,7.1,9.7,7.1,16.8v7.3h-35.7
			c0.4,2.7,1.8,4.9,4.2,6.6c2.4,1.7,5,2.5,8,2.5c4.8,0,8.7-1.6,11.8-4.8L443.6,70.3z M430.5,41.2c-1.9-1.6-4.2-2.4-6.9-2.4
			c-2.7,0-5.2,0.8-7.4,2.5c-2.2,1.6-3.6,3.9-3.9,6.6h21.5C433.5,45,432.4,42.8,430.5,41.2z"/>
	</g>
</g>
</svg>
